<?xml version="1.0" encoding="utf-8"?>
<!-- Generator: Adobe Illustrator 22.1.0, SVG Export Plug-In . SVG Version: 6.00 Build 0)  -->
<svg version="1.1" xmlns="http://www.w3.org/2000/svg" xmlns:xlink="http://www.w3.org/1999/xlink" x="0px" y="0px"
	 viewBox="0 0 1444.8 204.7" style="enable-background:new 0 0 1444.8 204.7;" xml:space="preserve">
<style type="text/css">
	.st0{display:none;}
	.st1{display:inline;fill:#1F76BB;}
	.st2{fill:#FFFFFF;}
</style>
<g id="Layer_2" class="st0">
	<rect x="-1603" y="-2190" class="st1" width="4584" height="4584"/>
</g>
<g id="Layer_1">
	<title>hangman</title>
	<path class="st2" d="M56.8,63.8c-1.5-2.7-3.8-4-7.1-4c-2.5,0-4.6,0.7-6.1,2c-1.5,1.3-2.7,3.7-3.5,7.1c-0.8,3.4-1.3,8-1.5,13.7
		c-0.2,5.8-0.4,13-0.4,21.8c0,8.7,0.1,16,0.4,21.8c0.2,5.8,0.8,10.3,1.5,13.7c0.8,3.4,1.9,5.8,3.5,7.1c1.5,1.3,3.5,2,6.1,2
		c2.1,0,3.8-0.5,5.1-1.5c1.3-1,2.4-2.8,3.1-5.2c0.7-2.4,1.2-5.7,1.5-9.7c0.3-4.1,0.5-9.2,0.5-15.4h32.8v9.6c0,9.1-1.2,16.6-3.6,22.4
		c-2.4,5.8-5.6,10.4-9.6,13.7c-4,3.3-8.6,5.6-13.7,6.7c-5.2,1.2-10.5,1.7-15.9,1.7c-9.5,0-17.2-1.2-23.3-3.5
		c-6.1-2.3-10.8-6.2-14.2-11.6c-3.4-5.4-5.7-12.4-7-20.9c-1.3-8.6-1.9-18.9-1.9-31c0-12.4,0.8-22.9,2.3-31.5
		c1.5-8.6,4.1-15.6,7.7-20.9c3.6-5.3,8.4-9.2,14.4-11.6c5.9-2.4,13.3-3.5,22-3.5c7.6,0,14.1,1,19.5,2.9c5.3,1.9,9.7,4.7,13,8.3
		c3.3,3.6,5.8,7.9,7.3,12.9c1.5,5,2.3,10.7,2.3,17v8.2H59v-7.3C59,71.5,58.2,66.5,56.8,63.8z"/>
	<path class="st2" d="M134.2,70.9v15.7h0.4c1.8-5.9,4.7-10.5,8.7-13.6c4-3.1,8.4-4.6,13.3-4.6h5.3V99c-1.5-0.2-2.9-0.4-4.2-0.5
		c-1.3-0.1-2.7-0.2-4-0.2c-5.8,0-10.3,1.3-13.6,3.8c-3.2,2.5-4.8,7.1-4.8,13.7v53.7h-32.8V70.9H134.2z"/>
	<path class="st2" d="M176.9,177.8c1.2,0.1,2.4,0.2,3.6,0.2c2.1,0,3.8-0.3,5.2-0.9c1.4-0.6,2.5-1.3,3.4-2.1c0.8-0.8,1.5-1.6,1.8-2.5
		c0.4-0.9,0.5-1.5,0.5-2c0-0.7-0.2-1.7-0.5-2.9c-0.3-1.2-0.6-2.5-1-3.8l-25.9-92.8h33.7l10,66.5h0.4l9.5-66.5h32.8l-26.4,101.2
		c-1.5,5.7-3.1,10.4-5,14.1c-1.9,3.7-4.1,6.6-6.7,8.8c-2.6,2.2-5.6,3.7-9,4.6c-3.4,0.8-7.3,1.3-11.7,1.3c-3.5,0-6.8-0.1-9.7-0.2
		c-3-0.1-5.9-0.3-8.6-0.5v-22.9C174.5,177.5,175.7,177.7,176.9,177.8z"/>
	<path class="st2" d="M280.9,144.3c0.4,1.7,1,3.1,1.8,4.2c1.6,2.3,3.9,3.5,6.9,3.5c2.5,0,4.8-0.7,6.6-2.2c1.9-1.5,2.8-3.5,2.8-6.2
		c0-2.9-1.2-5.2-3.5-6.7c-2.4-1.6-5.3-3-8.8-4.2c-3.5-1.2-7.3-2.5-11.4-3.8c-4.1-1.3-7.9-3.2-11.4-5.5c-3.5-2.3-6.5-5.4-8.8-9.2
		c-2.4-3.8-3.5-8.8-3.5-15c0-4.4,0.8-8.4,2.4-12.1c1.6-3.7,4-6.9,7.2-9.7c3.2-2.8,7.3-5,12.2-6.6c4.9-1.6,10.7-2.4,17.4-2.4
		c24.6,0,37,10.3,37,30.9h-28.4c0-4.2-0.8-7.1-2.3-8.6c-1.5-1.5-3.7-2.3-6.5-2.3c-2.4,0-4.4,0.7-6,2c-1.6,1.3-2.4,3.2-2.4,5.6
		c0,2.8,1.2,4.9,3.5,6.3c2.4,1.4,5.3,2.6,8.8,3.7c3.5,1.1,7.3,2.2,11.4,3.5c4.1,1.2,7.9,2.9,11.4,5.2c3.5,2.2,6.5,5.3,8.8,9.1
		c2.4,3.8,3.5,8.9,3.5,15.2c0,4.9-0.9,9.3-2.7,13.3c-1.8,4-4.4,7.5-7.7,10.4c-3.3,2.9-7.5,5.1-12.4,6.6c-4.9,1.5-10.5,2.2-16.7,2.2
		c-13.7,0-23.6-2.7-29.6-8.2c-6-5.5-9-13.6-9-24.4h28.8C280.3,140.8,280.5,142.6,280.9,144.3z"/>
	<path class="st2" d="M344.1,70.9V42h32.8v28.9h12.9v22h-12.9v47c0,2.8,0.6,4.8,1.9,5.9c1.3,1.2,3.2,1.7,5.9,1.7h5.1v21.8
		c-3,0-6.1,0.1-9.1,0.3c-3,0.2-5.9,0.3-8.7,0.3c-5,0-9.2-0.2-12.7-0.6c-3.5-0.4-6.4-1.5-8.6-3.2c-2.2-1.7-3.9-4.2-4.9-7.6
		c-1-3.3-1.5-7.7-1.5-13.2V93h-10.9v-22H344.1z"/>
	<path class="st2" d="M443.3,164.1c-0.2-1.8-0.5-3.8-0.7-5.8h-0.4c-1.8,4.4-4.7,7.6-8.6,9.8c-3.9,2.2-8.5,3.3-13.6,3.3
		c-5,0-9.2-0.6-12.7-1.9c-3.5-1.3-6.3-3.2-8.5-5.7c-2.2-2.5-3.8-5.6-4.7-9.1c-1-3.5-1.5-7.4-1.5-11.7c0-4.6,0.5-8.6,1.4-12
		c0.9-3.4,2.4-6.3,4.5-8.8c2.1-2.5,4.9-4.6,8.4-6.4c3.5-1.8,7.9-3.2,13.1-4.5l12.9-3.1c3.5-0.8,6-2.1,7.5-3.7c1.5-1.6,2.2-4,2.2-7
		c0-6.1-2.8-9.1-8.4-9.1c-3.2,0-5.5,0.9-6.9,2.6c-1.5,1.8-2.2,5.3-2.4,10.5h-28.4c0-7.2,1.3-12.9,3.8-17.2c2.5-4.3,5.7-7.6,9.5-10
		c3.8-2.4,7.8-3.9,12.2-4.7c4.4-0.8,8.4-1.2,12.2-1.2c5.7,0,11,0.5,15.7,1.4c4.8,0.9,8.9,2.5,12.4,4.9c3.5,2.4,6.1,5.6,8,9.6
		c1.9,4.1,2.8,9.3,2.8,15.7v48.1c0,4.6,0.2,8.7,0.5,12.2c0.4,3.5,1.2,6.6,2.5,9.1h-31.7C444,167.7,443.5,166,443.3,164.1z
		 M440.2,145.9c1.6-2.7,2.4-6.7,2.4-12.2v-11.8h-0.4c-1,1.3-2.5,2.2-4.5,2.5c-2,0.3-4.2,1-6.6,2.1c-2.5,1.2-4.3,2.8-5.3,4.8
		c-1,2-1.5,4.6-1.5,7.9c0,3.3,0.7,5.9,2.2,7.8c1.5,1.9,3.4,2.9,5.8,2.9C436,149.9,438.6,148.6,440.2,145.9z"/>
	<path class="st2" d="M521,39.4v130h-32.8v-130H521z"/>
	<path class="st2" d="M596.9,114.7c-3.5-2.2-7.3-4-11.4-5.2c-4.1-1.2-7.9-2.4-11.4-3.5c-3.5-1.1-6.5-2.3-8.8-3.7
		c-2.4-1.4-3.5-3.5-3.5-6.3c0-2.4,0.8-4.3,2.4-5.6c1.6-1.3,3.6-2,6-2c2.8,0,4.9,0.8,6.5,2.3c1.5,1.5,2.3,4.4,2.3,8.6h21.8
		l-26.9-30.9c-1.1,0-2.3-0.1-3.5-0.1c-6.7,0-12.5,0.8-17.4,2.4c-4.9,1.6-9,3.8-12.2,6.6c-3.2,2.8-5.6,6-7.2,9.7
		c-1.6,3.7-2.4,7.7-2.4,12.1c0,6.2,1.2,11.2,3.5,15c2.4,3.8,5.3,6.9,8.8,9.2c3.5,2.3,7.3,4.1,11.4,5.5c4.1,1.3,7.9,2.6,11.4,3.8
		c3.5,1.2,6.5,2.6,8.8,4.2c2.4,1.6,3.5,3.8,3.5,6.7c0,2.7-0.9,4.7-2.8,6.2c-1.9,1.5-4.1,2.2-6.6,2.2c-3,0-5.3-1.2-6.9-3.5
		c-0.9-1.1-1.5-2.5-1.8-4.2c-0.4-1.7-0.5-3.5-0.5-5.5h-28.8c0,10.8,3,18.9,9,24.4c6,5.5,15.9,8.2,29.6,8.2c6.2,0,11.7-0.7,16.7-2.2
		c4.9-1.5,9-3.6,12.4-6.6c3.3-2.9,5.9-6.4,7.7-10.4c1.8-4,2.7-8.4,2.7-13.3c0-6.3-1.2-11.4-3.5-15.2
		C603.4,120,600.5,117,596.9,114.7z"/>
	<path class="st2" d="M830.6,117.2c0,6.2-0.2,11.3-0.5,15.4c-0.3,4.1-0.8,7.3-1.5,9.7c-0.7,2.4-1.8,4.2-3.1,5.2
		c-1.3,1-3,1.5-5.1,1.5c-2.5,0-4.6-0.7-6.1-2c-1.5-1.3-2.7-3.7-3.5-7.1c-0.8-3.4-1.3-8-1.5-13.7c-0.2-5.8-0.4-13-0.4-21.8
		c0-8.7,0.1-16,0.4-21.8c0.2-5.8,0.8-10.3,1.5-13.7c0.8-3.4,1.9-5.8,3.5-7.1c1.5-1.3,3.5-2,6.1-2c3.3,0,5.6,1.3,7.1,4
		c1.5,2.7,2.2,7.7,2.2,15.1v7.3h32.8V78c0-6.3-0.8-12-2.3-17c-1.5-5-3.9-9.3-7.3-12.9c-3.3-3.6-7.7-6.3-13-8.3
		c-5.3-1.9-11.8-2.9-19.5-2.9c-8.7,0-16.1,1.2-22,3.5c-4.4,1.7-8.1,4.3-11.2,7.6l15.7,23.7l-28.8,31c0,0.6,0,1.1,0,1.7
		c0,12.1,0.6,22.5,1.9,31c1.3,8.6,3.6,15.5,7,20.9c3.4,5.4,8.1,9.3,14.2,11.6c6.1,2.3,13.8,3.5,23.3,3.5c5.5,0,10.8-0.6,15.9-1.7
		c5.2-1.2,9.7-3.4,13.7-6.7c4-3.3,7.2-7.9,9.6-13.7c2.4-5.8,3.6-13.3,3.6-22.4v-9.6H830.6z"/>
	<path class="st2" d="M953.5,139.2c-0.9,6.2-2.8,11.7-5.7,16.5c-2.9,4.8-7.1,8.6-12.7,11.5c-5.5,2.9-12.9,4.3-22.1,4.3
		c-9.6,0-17.2-1.3-22.8-3.9c-5.6-2.6-9.8-6.2-12.6-10.9c-2.8-4.7-4.6-10.1-5.4-16.4c-0.8-6.2-1.2-13-1.2-20.1
		c0-6.4,0.5-12.7,1.4-18.9c0.9-6.2,2.8-11.7,5.7-16.6c2.9-4.9,7.1-8.8,12.7-11.7c5.5-3,12.9-4.5,22.1-4.5c9.6,0,17.2,1.4,22.8,4.1
		c5.6,2.7,9.8,6.5,12.6,11.2c2.8,4.7,4.6,10.2,5.4,16.5c0.8,6.3,1.2,13,1.2,20.1C954.9,126.7,954.4,133,953.5,139.2z M904.3,135.5
		c0.2,3.9,0.7,7.1,1.5,9.4c0.7,2.3,1.7,3.9,2.8,4.7c1.2,0.9,2.6,1.3,4.5,1.3c1.8,0,3.3-0.4,4.6-1.3c1.2-0.8,2.2-2.4,2.8-4.7
		c0.7-2.3,1.1-5.4,1.4-9.4c0.2-3.9,0.4-9,0.4-15.2c0-6.2-0.1-11.3-0.4-15.3c-0.2-4-0.7-7.2-1.4-9.5c-0.7-2.3-1.6-3.9-2.8-4.7
		c-1.2-0.8-2.7-1.3-4.6-1.3c-1.8,0-3.3,0.4-4.5,1.3c-1.2,0.9-2.1,2.4-2.8,4.7c-0.7,2.3-1.2,5.5-1.5,9.5c-0.2,4-0.4,9.1-0.4,15.3
		C903.9,126.5,904,131.5,904.3,135.5z"/>
	<path class="st2" d="M998.4,39.4v130h-32.8v-130H998.4z"/>
	<path class="st2" d="M1045.4,39.4v130h-32.8v-130H1045.4z"/>
	<path class="st2" d="M1088.9,138.7c0,5.3,0.9,8.9,2.7,10.7c1.8,1.8,3.9,2.6,6.2,2.6c2.9,0,5.2-1.2,6.8-3.5
		c1.6-2.4,2.5-6.9,2.5-13.6h29.5c-0.2,12.1-3.3,21.3-9.3,27.4c-5.9,6.1-15.7,9.2-29.3,9.2c-7.9,0-14.5-0.9-19.8-2.6
		c-5.3-1.8-9.6-4.7-12.9-8.7c-3.3-4.1-5.6-9.4-7-15.9c-1.4-6.6-2.1-14.5-2.1-23.9c0-9.5,0.8-17.5,2.4-24c1.6-6.6,4.1-11.9,7.5-16
		c3.4-4.1,7.7-7.1,13-9c5.3-1.9,11.6-2.8,19-2.8c6.6,0,12.3,0.8,17.2,2.4c4.9,1.6,9,4.2,12.4,7.9c3.3,3.7,5.8,8.6,7.5,14.6
		c1.6,6,2.5,13.5,2.5,22.5v10h-48.6V138.7z M1105,92.1c-1.3-2.4-3.7-3.6-7.2-3.6c-3.4,0-5.7,1.2-7,3.6c-1.3,2.4-1.9,6.3-1.9,11.5
		v4.4h18v-4.4C1106.9,98.3,1106.3,94.5,1105,92.1z"/>
	<path class="st2" d="M1195,99.8c-0.4-2.5-0.9-4.5-1.6-6.1c-1.3-2.8-3.8-4.2-7.3-4.2c-1.8,0-3.4,0.5-4.6,1.4c-1.3,0.9-2.3,2.5-3,4.9
		c-0.7,2.4-1.2,5.5-1.5,9.5c-0.3,3.9-0.5,9-0.5,15c0,6.1,0.2,11.1,0.5,15c0.3,3.9,0.8,7.1,1.5,9.4c0.7,2.3,1.7,3.9,3,4.8
		c1.3,0.9,2.8,1.4,4.6,1.4c3,0,5.4-1.2,7-3.5c1.6-2.3,2.5-6.6,2.5-12.7v-6.4h29.5c0,7.8-0.7,14.4-2,19.8c-1.3,5.5-3.6,10-6.7,13.5
		c-6.2,6.6-16.3,9.8-30.2,9.8c-6.3,0-12.1-0.5-17.3-1.6c-5.2-1.1-9.7-3.4-13.4-7c-3.7-3.6-6.6-8.6-8.6-15.1
		c-2.1-6.5-3.1-15.1-3.1-25.8c0-11.7,1.2-21,3.5-28c2.3-7,5.4-12.4,9.4-16.2c3.9-3.8,8.6-6.2,13.9-7.5c5.3-1.2,11.1-1.8,17.3-1.8
		c7.3,0,13.3,1,18.1,3c4.8,2,8.6,4.8,11.5,8.4c2.9,3.6,4.9,7.9,6,12.9c1.2,5,1.7,10.7,1.7,16.8h-29.5
		C1195.6,105.5,1195.4,102.3,1195,99.8z"/>
	<path class="st2" d="M1238.9,70.9V42h32.8v28.9h12.9v22h-12.9v47c0,2.8,0.6,4.8,1.9,5.9c1.3,1.2,3.2,1.7,5.9,1.7h5.1v21.8
		c-3,0-6.1,0.1-9.1,0.3c-3,0.2-5.9,0.3-8.7,0.3c-5,0-9.2-0.2-12.7-0.6c-3.5-0.4-6.4-1.5-8.6-3.2c-2.2-1.7-3.9-4.2-4.9-7.6
		c-1-3.3-1.5-7.7-1.5-13.2V93H1228v-22H1238.9z"/>
	<path class="st2" d="M1371,139.2c-0.9,6.2-2.8,11.7-5.7,16.5c-2.9,4.8-7.1,8.6-12.7,11.5c-5.5,2.9-12.9,4.3-22.1,4.3
		c-9.6,0-17.2-1.3-22.8-3.9c-5.6-2.6-9.8-6.2-12.6-10.9c-2.8-4.7-4.6-10.1-5.4-16.4c-0.8-6.2-1.2-13-1.2-20.1
		c0-6.4,0.5-12.7,1.4-18.9c0.9-6.2,2.8-11.7,5.7-16.6c2.9-4.9,7.1-8.8,12.7-11.7c5.5-3,12.9-4.5,22.1-4.5c9.6,0,17.2,1.4,22.8,4.1
		c5.6,2.7,9.8,6.5,12.6,11.2c2.8,4.7,4.6,10.2,5.4,16.5c0.8,6.3,1.2,13,1.2,20.1C1372.3,126.7,1371.9,133,1371,139.2z M1321.7,135.5
		c0.2,3.9,0.7,7.1,1.5,9.4c0.7,2.3,1.7,3.9,2.8,4.7c1.2,0.9,2.6,1.3,4.5,1.3s3.3-0.4,4.6-1.3c1.2-0.8,2.2-2.4,2.8-4.7
		c0.7-2.3,1.1-5.4,1.4-9.4c0.2-3.9,0.4-9,0.4-15.2c0-6.2-0.1-11.3-0.4-15.3c-0.2-4-0.7-7.2-1.4-9.5c-0.7-2.3-1.6-3.9-2.8-4.7
		c-1.2-0.8-2.7-1.3-4.6-1.3s-3.3,0.4-4.5,1.3c-1.2,0.9-2.1,2.4-2.8,4.7c-0.7,2.3-1.2,5.5-1.5,9.5c-0.2,4-0.4,9.1-0.4,15.3
		C1321.4,126.5,1321.5,131.5,1321.7,135.5z"/>
	<path class="st2" d="M635.5,93.6c-0.3,0-0.6-0.1-0.9-0.2l-60.8-22.7c-0.7-0.3-1.3-0.9-1.5-1.6s-0.1-1.6,0.4-2.2L605,22.8
		c0.7-1,2-1.3,3.1-0.8l40.5,19c1.1,0.5,1.7,1.7,1.4,2.9l-12,47.8c-0.2,0.7-0.6,1.3-1.3,1.6C636.3,93.6,635.9,93.6,635.5,93.6z
		 M578.6,67.2l55.1,20.6l10.8-43.1l-36.8-17.2L578.6,67.2z"/>
	<path class="st2" d="M730.7,47.9C730.7,47.9,730.7,47.9,730.7,47.9l-83.2-2.1c-0.3,0-0.7-0.1-1-0.2l-40.5-19
		c-0.9-0.4-1.4-1.3-1.4-2.3c0-1,0.6-1.9,1.5-2.3l41.3-18.3c0.3-0.1,0.7-0.2,1.1-0.2L731.8,5c0.4,0,0.7,0.1,1,0.2l40.4,19.5
		c0.9,0.4,1.4,1.3,1.4,2.3s-0.6,1.9-1.5,2.2l-41.4,18.4C731.4,47.8,731,47.9,730.7,47.9z M648.1,40.8l82.1,2l36-15.9l-35-16.9
		l-82.3-1.5l-35.8,15.9L648.1,40.8z"/>
	<path class="st2" d="M741.5,95.3C741.4,95.3,741.4,95.3,741.5,95.3l-106-1.7c-0.8,0-1.5-0.4-1.9-1c-0.5-0.6-0.6-1.4-0.4-2.1
		l12-47.8c0.3-1.1,1.3-1.9,2.5-1.9l83.2,2c1.1,0,2.1,0.8,2.4,1.9l10.8,47.5c0.2,0.7,0,1.5-0.5,2.1C742.9,95,742.2,95.3,741.5,95.3z
		 M638.7,88.7l99.6,1.6l-9.6-42.5l-79.2-2L638.7,88.7z"/>
	<path class="st2" d="M741.5,95.3c-0.4,0-0.8-0.1-1.2-0.3c-0.6-0.3-1.1-0.9-1.2-1.6l-10.8-47.5c-0.3-1.2,0.3-2.4,1.4-2.8l41.4-18.4
		c1.1-0.5,2.4-0.1,3.1,0.9l30.6,44.8c0.4,0.6,0.6,1.5,0.3,2.2c-0.2,0.7-0.8,1.3-1.6,1.6l-61.3,21C742,95.3,741.7,95.3,741.5,95.3z
		 M733.6,46.8l9.7,42.8l55.5-19.1l-27.6-40.4L733.6,46.8z"/>
	<path class="st2" d="M686.7,199.1C686.7,199.1,686.7,199.1,686.7,199.1c-1,0-1.8-0.6-2.2-1.4L633.3,92.2c-0.4-0.8-0.3-1.7,0.1-2.4
		c0.5-0.7,1.3-1.2,2.1-1.2l106,1.7c0.9,0,1.7,0.5,2.1,1.2c0.4,0.7,0.5,1.7,0.1,2.4l-54.7,103.7C688.5,198.6,687.6,199.1,686.7,199.1
		z M639.5,93.7l47.3,97.3l50.5-95.8L639.5,93.7z"/>
	<path class="st2" d="M686.7,199.1c-0.5,0-1-0.2-1.4-0.5c-1-0.7-1.3-2.1-0.8-3.2l54.7-103.7c0.3-0.6,0.8-1,1.4-1.2l61.3-21
		c1.1-0.4,2.3,0,2.9,1c0.6,1,0.5,2.2-0.3,3.1l-116,124.8C688.1,198.8,687.4,199.1,686.7,199.1z M743.2,94.9l-45.5,86.2l96.4-103.6
		L743.2,94.9z"/>
	<path class="st2" d="M686.7,199.1c-0.7,0-1.4-0.3-1.9-0.9L572.8,70.1c-0.8-0.9-0.8-2.1-0.2-3.1s1.9-1.3,2.9-0.9l60.8,22.7
		c0.6,0.2,1.1,0.7,1.4,1.2L689,195.5c0.5,1.1,0.2,2.5-0.9,3.2C687.7,198.9,687.2,199.1,686.7,199.1z M583.1,74.2l93.3,106.6
		l-42.6-87.7L583.1,74.2z"/>
	<path class="st2" d="M1413.3,70.9v15.7h0.4c1.8-5.9,4.7-10.5,8.7-13.6c4-3.1,8.4-4.6,13.3-4.6h5.3V99c-1.5-0.2-2.9-0.4-4.2-0.5
		c-1.3-0.1-2.7-0.2-4-0.2c-5.8,0-10.3,1.3-13.6,3.8c-3.2,2.5-4.8,7.1-4.8,13.7v53.7h-32.8V70.9H1413.3z"/>
</g>
</svg>
